<?xml version="1.0" encoding="UTF-8" standalone="no"?>

<svg
   width="51.910908mm"
   height="81.213287mm"
   viewBox="0 0 51.910908 81.213287"
   version="1.1"
   id="svg1"
   xml:space="preserve"
   xmlns="http://www.w3.org/2000/svg"
   xmlns:svg="http://www.w3.org/2000/svg"><defs
     id="defs1" /><g
     id="layer1"
     transform="translate(-138.76153,-32.106402)"><path
       style="fill:#000000"
       d="m 171.35313,113.14164 c -0.16039,-0.10692 -0.49046,-0.61111 -0.73348,-1.12043 -0.87719,-1.83839 -5.52521,-6.594 -9.45136,-9.67013 -1.90117,-1.48957 -2.88176,-2.1235 -7.22575,-4.671286 -4.7403,-2.78023 -8.96211,-7.09276 -11.89474,-12.150312 -1.19333,-2.058 -2.09782,-6.50359 -2.97523,-14.62334 -0.49536,-4.58413 -0.51689,-4.25059 0.81867,-12.6871 0.71197,-4.49745 1.24517,-6.89753 1.86055,-8.37492 0.34466,-0.82743 1.02097,-5.89817 1.72259,-12.91526 0.13552,-1.35532 0.3153,-2.57571 0.39951,-2.71198 0.23797,-0.38504 0.95665,-0.29266 1.49195,0.19178 0.26712,0.24174 0.74053,0.56916 1.05203,0.7276 0.31149,0.15844 1.02089,1.15893 1.57643,2.22332 1.8711,3.58488 4.93793,6.94276 6.79858,7.44378 1.91559,0.51581 4.35379,-0.35153 6.44601,-2.29304 1.0217,-0.94809 1.65102,-1.87741 2.51118,-3.70823 0.63129,-1.34369 1.1478,-2.57177 1.1478,-2.72907 0,-0.1573 0.25278,-0.87362 0.56175,-1.59183 0.38169,-0.88727 0.71761,-1.30581 1.04802,-1.30581 0.60393,0 1.46798,0.89944 1.68157,1.75045 0.22478,0.89558 1.814,3.32049 2.76347,4.21664 1.93357,1.82499 5.88344,2.45185 9.04457,1.43541 3.39077,-1.09028 5.5215,-3.21391 6.71798,-6.69558 0.65143,-1.89563 1.38152,-2.27934 2.13856,-1.12395 0.37485,0.57209 0.40098,0.92377 0.17325,2.33131 -0.29973,1.85247 -0.28032,1.66684 -0.47751,4.56801 -0.11234,1.65272 0.004,2.84157 0.52922,5.42395 1.76421,8.66852 2.13599,20.20592 0.75093,23.30332 -0.28791,0.64385 -0.67542,1.64689 -0.86112,2.22898 -0.53908,1.68967 -3.3567,7.37255 -4.01917,8.10626 -0.33255,0.36833 -2.24448,2.12966 -4.24871,3.91406 -2.00424,1.78441 -3.96681,3.667512 -4.36126,4.184662 -1.96706,2.57895 -4.22999,6.62406 -4.69986,8.40127 -0.11542,0.43656 -0.26886,0.97234 -0.34098,1.19062 -0.33247,1.00631 -0.2979,5.383926 0.0606,7.672916 0.75035,4.79112 1.2207,7.19551 1.51525,7.74588 0.24693,0.46139 0.19759,0.6327 -0.29773,1.03379 -0.6559,0.53111 -0.79632,0.56305 -1.22356,0.27826 z m -1.16364,-5.15533 c -3e-5,-0.0364 -0.1753,-0.98202 -0.38951,-2.10143 -0.60998,-3.18771 -0.77623,-7.003836 -0.40182,-9.223606 0.24308,-1.44112 0.73881,-2.75485 1.88856,-5.00486 2.24503,-4.39344 3.74108,-6.454792 6.31115,-8.695872 3.88001,-3.38335 6.46565,-6.00319 6.98499,-7.07737 0.27546,-0.56976 0.60153,-1.21451 0.72461,-1.4328 2.65387,-4.70669 2.83503,-5.47546 3.03437,-12.87642 0.18789,-6.97607 -0.056,-10.45724 -1.08074,-15.42612 -0.34602,-1.67782 -0.70896,-3.79472 -0.80653,-4.70423 -0.0976,-0.9095 -0.25501,-1.6535 -0.34987,-1.65332 -0.0948,1.8e-4 -0.52964,0.30948 -0.96621,0.68734 -2.08258,1.80253 -4.94702,2.74521 -8.35338,2.74906 -4.54934,0.005 -7.48738,-1.63972 -9.3441,-5.23131 -0.52979,-1.0248 -0.80579,-0.93283 -1.22807,0.40921 -1.49918,4.76457 -4.68196,7.84983 -8.78721,8.51798 -2.49746,0.40647 -4.54053,-0.41015 -6.70459,-2.67983 -1.8367,-1.92635 -2.95017,-3.41837 -3.95602,-5.30096 -0.46757,-0.87512 -0.92072,-1.47692 -1.007,-1.33732 -0.0863,0.13961 -0.34303,1.61119 -0.57056,3.27019 -0.96809,7.0586 -1.11504,7.73964 -1.79177,8.30411 -0.75299,0.62809 -1.62913,2.68131 -1.24536,2.91849 0.49312,0.30477 0.29285,1.66887 -0.27131,1.84793 -0.57161,0.18142 -0.68841,0.53181 -0.26458,0.79375 0.41385,0.25577 0.30998,1.19062 -0.1323,1.19062 -0.47857,0 -0.53378,0.95868 -0.0661,1.14843 0.23884,0.0969 0.24861,0.19493 0.0351,0.35278 -0.68446,0.50616 -1.21435,9.87316 -0.79814,14.10921 0.10723,1.0914 0.37459,2.82607 0.59413,3.85482 0.21954,1.02874 0.3779,1.98124 0.3519,2.11666 -0.098,0.51044 0.0246,0.90768 0.27999,0.90768 0.14552,0 0.26458,-0.14464 0.26458,-0.32143 0,-0.55308 2.12786,-4.70565 2.41127,-4.70565 0.75049,0 1.3076,0.59825 1.3059,1.40233 -9.8e-4,0.46565 -0.0122,1.70983 -0.025,2.76486 -0.0184,1.52117 0.0572,1.91823 0.36539,1.91823 0.52443,0 0.96785,-1.34513 1.15566,-3.50573 0.15804,-1.81825 0.46681,-2.19637 1.13555,-1.39058 0.20101,0.24219 0.25775,0.67781 0.14648,1.12448 -0.0999,0.40101 -0.27829,1.32443 -0.39641,2.05204 -0.56837,3.50109 -1.38698,5.15937 -2.54691,5.15937 -0.71276,0 -0.96726,-0.83696 -0.90301,-2.96964 0.0637,-2.11381 0.0193,-2.58661 -0.24276,-2.58661 -0.13184,0 -0.43058,0.56016 -0.66386,1.2448 -0.23328,0.68464 -0.71582,1.54924 -1.07232,1.92135 l -0.64818,0.67655 0.86139,2.11354 c 1.50903,3.702652 4.70037,7.710632 8.60581,10.807952 0.9657,0.76588 3.36652,2.34849 5.33514,3.51689 4.44866,2.640346 7.66096,5.099306 10.57414,8.094316 1.90853,1.96213 2.64778,2.59042 2.64755,2.25012 z m -8.45724,-22.795638 c -0.13316,-0.35023 -0.32418,-1.36226 -0.4245,-2.24895 -0.14951,-1.32143 -0.26999,-1.61218 -0.66808,-1.61218 -0.26713,0 -0.60851,-0.2295 -0.75863,-0.51 -0.21719,-0.40583 -0.13634,-0.67232 0.39583,-1.30478 0.5063,-0.60171 0.70788,-1.21355 0.82974,-2.51858 0.11416,-1.22251 0.28285,-1.77056 0.58007,-1.88462 0.54384,-0.20868 1.09452,0.54905 1.09452,1.50605 0,0.54696 0.12936,0.74318 0.48995,0.74318 0.42336,0 0.51264,-0.29426 0.65691,-2.16503 0.17467,-2.26506 0.39438,-2.77337 1.08432,-2.50861 0.30393,0.11663 0.41483,0.53226 0.41533,1.55648 3.7e-4,0.76855 0.23334,3.00371 0.51771,4.96701 0.46628,3.21911 0.47746,3.63007 0.11392,4.1849 -0.60968,0.93049 -1.03635,0.35697 -1.44486,-1.94213 -0.45012,-2.5333 -0.58634,-2.75782 -1.28796,-2.12286 -0.48966,0.44313 -0.54532,0.79989 -0.54532,3.49521 0,2.51344 -0.0656,3.0017 -0.40342,3.0017 -0.22189,0 -0.51237,-0.28655 -0.64553,-0.63679 z m -5.25088,-0.64977 c -0.42498,-0.26921 -0.49589,-1.49232 -0.21295,-3.67285 l 0.21439,-1.65213 -1.16054,0.15907 c -0.87305,0.11967 -1.24535,0.0569 -1.50286,-0.25339 -0.65591,-0.79032 -0.2498,-1.33606 1.208,-1.62332 0.76595,-0.15093 1.65234,-0.53753 2.01208,-0.87757 0.59705,-0.56435 0.71958,-0.58389 1.71432,-0.27344 1.06519,0.33245 1.06913,0.33857 0.69047,1.07082 -0.20946,0.40505 -0.48881,0.73645 -0.62079,0.73645 -0.33159,0 -0.51124,0.65614 -1.02902,3.75836 -0.4436,2.65779 -0.64133,3.05354 -1.3131,2.628 z m -6.95693,-2.61605 c -0.37575,-0.97963 -0.0838,-2.63993 0.66381,-3.77514 0.43388,-0.65881 0.57638,-1.18077 0.48756,-1.78593 -0.13546,-0.92294 0.24119,-1.11567 1.00825,-0.51593 0.45217,0.35355 1.27911,2.28159 1.15956,2.70357 -0.0412,0.14552 -0.14945,0.81878 -0.24049,1.49613 -0.30354,2.25832 -2.43421,3.55755 -3.07869,1.8773 z m 18.86195,-0.40404 c -0.67211,-0.80985 -1.22889,-9.17131 -0.6493,-9.7509 0.13285,-0.13286 0.43096,-0.0864 0.69785,0.10875 0.38948,0.2848 0.51473,1.06735 0.76345,4.77012 0.26083,3.88291 0.24776,4.47921 -0.10599,4.83295 -0.34099,0.34099 -0.45041,0.34705 -0.70601,0.0391 z m 2.73791,-1.84491 c -0.0588,-0.18191 -0.17458,-1.46183 -0.25724,-2.84428 -0.0827,-1.38244 -0.21953,-3.05607 -0.30418,-3.71918 -0.12035,-0.94271 -0.0558,-1.28704 0.29586,-1.57891 0.39569,-0.32839 0.50977,-0.2992 0.94862,0.24276 0.27436,0.33882 0.49884,0.9559 0.49884,1.37127 0,1.08349 1.41475,2.62573 2.40866,2.62573 0.60694,0 0.77434,-0.12383 0.8048,-0.59531 0.0745,-1.153 -0.0923,-2.40127 -0.4603,-3.44422 -0.68053,-1.92882 -0.38824,-2.92021 0.66673,-2.26137 0.45765,0.28581 0.63272,0.23834 1.26753,-0.34367 0.4051,-0.37141 1.4927,-1.2391 2.41689,-1.92821 1.7396,-1.2971 2.52456,-1.41825 2.3731,-0.36626 -0.0618,0.42963 -0.44156,0.72746 -1.40762,1.1041 -1.80262,0.7028 -3.30729,2.45708 -3.30729,3.85596 0,0.68122 0.1376,1.06475 0.42102,1.17351 0.69265,0.26579 2.18684,-0.62643 3.34069,-1.99483 1.52712,-1.81107 1.86993,-1.71571 3.11924,0.86771 l 1.04109,2.15283 -0.53945,0.75759 c -0.2967,0.41667 -0.58969,0.75759 -0.6511,0.75759 -0.0614,0 -0.45521,-0.75773 -0.87513,-1.68385 -0.41992,-0.92612 -0.90769,-1.77297 -1.08394,-1.88189 -0.19804,-0.1224 -0.69657,0.20532 -1.30513,0.85794 -0.6028,0.64645 -1.33785,1.13162 -1.89527,1.25099 -1.24308,0.2662 -1.59683,0.60439 -1.41016,1.34813 0.11843,0.47185 -0.0477,0.82902 -0.67971,1.46099 -0.8023,0.8023 -0.90065,0.82975 -2.40826,0.67217 l -1.5718,-0.16429 v 1.04497 c 0,0.76234 -0.13842,1.11905 -0.51178,1.31886 -0.66115,0.35384 -0.80472,0.34511 -0.93471,-0.0568 z m -5.73329,-10.64948 c -0.31435,-0.86932 -0.54017,-1.05612 -1.13754,-0.94101 -0.13614,0.0262 -0.53082,-0.0234 -0.87707,-0.11032 -0.94825,-0.23799 -0.71338,-1.28133 0.33084,-1.46973 0.72873,-0.13147 0.78514,-0.21831 0.68864,-1.06003 -0.28795,-2.51146 -0.37548,-2.37392 1.9572,-3.07529 2.20031,-0.66156 3.84958,-0.72562 4.03644,-0.15678 0.0597,0.18182 -0.0501,0.37965 -0.24413,0.43962 -0.194,0.06 -1.09953,0.32149 -2.01229,0.58115 -2.0417,0.58083 -2.56321,1.07215 -2.18735,2.06072 0.25646,0.67455 0.33173,0.69966 1.59502,0.53208 1.6122,-0.21386 1.73004,0.13269 0.33366,0.98123 -1.20107,0.72985 -1.42082,1.01915 -1.2329,1.62304 0.2004,0.64401 -0.11893,1.52136 -0.55374,1.52136 -0.19906,0 -0.51261,-0.41672 -0.69678,-0.92604 z m -8.86626,-0.2308 c -0.71677,-0.61654 -0.72314,-0.64821 -0.35917,-1.78594 0.20381,-0.63704 0.59018,-1.45592 0.85861,-1.81972 0.26843,-0.3638 0.69131,-0.93119 0.93972,-1.26086 l 0.45167,-0.5994 1.12448,0.5609 c 0.61846,0.3085 1.12447,0.70419 1.12447,0.87932 0,0.17512 -0.49587,0.43057 -1.10193,0.56766 -1.30146,0.29438 -2.22532,1.3371 -1.95086,2.20183 0.39509,1.24482 2.81613,0.13202 3.09684,-1.42341 0.13286,-0.7362 0.86287,-0.66435 0.97039,0.0955 0.0549,0.38764 -0.0175,0.55923 -0.19068,0.4522 -0.15816,-0.0978 -0.35634,0.13538 -0.45742,0.5381 -0.21247,0.84654 -0.76899,1.44053 -1.77147,1.89075 -1.09751,0.49289 -1.92028,0.40355 -2.73465,-0.29694 z m -0.0753,-9.45783 c -0.3,-0.49209 -0.5459,-1.2122 -0.54645,-1.60024 -6.4e-4,-0.4589 -0.25534,-0.89825 -0.72859,-1.2568 -0.68998,-0.52277 -0.70274,-0.57055 -0.24675,-0.92418 0.4357,-0.33789 0.45129,-0.51802 0.16599,-1.9182 -0.52849,-2.59372 -0.49785,-2.77125 0.54378,-3.15142 0.50932,-0.18589 2.07232,-0.34704 3.47333,-0.35811 2.033,-0.0161 2.62061,-0.10872 2.91042,-0.45891 0.19972,-0.24132 1.0775,-0.77701 1.95063,-1.19041 1.98877,-0.94164 4.69416,-1.06187 5.72088,-0.25424 0.6239,0.49076 0.66472,0.48758 2.87995,-0.22456 1.2359,-0.39731 3.36125,-0.94431 4.72301,-1.21557 2.42756,-0.48356 2.48311,-0.48337 2.84359,0.01 0.61763,0.84466 -0.0858,1.51726 -2.22118,2.12387 -1.02559,0.29134 -1.93924,0.60425 -2.03035,0.69535 -0.0911,0.0911 0.12497,0.80523 0.48015,1.58696 0.35518,0.78172 0.84294,2.05787 1.0839,2.83588 0.39969,1.29053 0.40157,1.47033 0.0214,2.05052 -0.84863,1.29518 -1.47351,0.61404 -2.45065,-2.67134 -0.2164,-0.7276 -0.62643,-1.78031 -0.91118,-2.33934 -0.467,-0.91683 -0.58727,-0.99567 -1.22758,-0.8047 -0.39043,0.11645 -1.14658,0.19937 -1.68034,0.18428 -0.80073,-0.0226 -0.99692,0.078 -1.1217,0.5751 -0.0832,0.33139 -0.82333,1.264 -1.64479,2.07247 l -1.49357,1.46993 0.84865,1.75964 c 0.46676,0.9678 0.78313,1.9304 0.70304,2.13911 -0.21377,0.55708 -0.89983,0.73962 -1.35622,0.36085 -0.43673,-0.36245 -3.5639,-6.74803 -3.5639,-7.27736 0,-0.46335 -1.53155,-0.65179 -1.70133,-0.20933 -0.0988,0.25746 -0.83165,0.34956 -2.78167,0.34956 h -2.64751 l 0.15779,0.85989 c 0.0868,0.47295 0.23736,1.27373 0.33462,1.77951 l 0.17684,0.91962 1.91596,0.0279 c 1.68419,0.0245 2.7857,0.37755 2.39551,0.76774 -0.0716,0.0716 -0.99705,0.21072 -2.05661,0.30919 -2.13994,0.19889 -2.39701,0.43556 -1.86589,1.7178 0.31986,0.77221 0.39586,0.80667 1.41919,0.64352 0.59468,-0.0948 1.6408,-0.37086 2.32472,-0.61345 1.4989,-0.53167 1.93562,-0.24797 0.93889,0.60993 -0.79706,0.68604 -2.0396,1.11264 -3.95103,1.3565 -1.19142,0.152 -1.26065,0.12343 -1.78495,-0.73657 z m 10.6136,-7.57544 c 0.97072,-1.04372 1.60373,-2.11155 1.34613,-2.27076 -0.35595,-0.21998 -2.65418,0.35421 -2.97762,0.74393 -0.22024,0.26537 -0.19449,0.59799 0.10104,1.30528 0.21812,0.52204 0.49944,0.94916 0.62516,0.94916 0.12572,0 0.5331,-0.32742 0.90529,-0.72761 z m -19.74661,7.36385 c -0.11357,-0.18376 0.12976,-0.40979 0.62823,-0.58355 0.88433,-0.30828 1.03818,-0.92962 0.54887,-2.21659 -0.20364,-0.53564 -1.05684,-4.21597 -1.05798,-4.56371 -1.2e-4,-0.0364 0.27795,-0.0661 0.61792,-0.0661 0.54544,0 0.66991,0.2145 1.05834,1.82379 0.24211,1.00309 0.44019,2.37231 0.44019,3.04271 0,0.99166 0.0877,1.21891 0.4703,1.21891 1.81934,0 3.16704,-3.34235 2.01239,-4.99083 -0.50282,-0.71788 -2.16068,-1.47964 -3.8184,-1.7545 -1.44983,-0.24038 -2.10387,-0.56722 -2.10387,-1.05135 0,-0.91773 2.56118,-0.79123 4.8727,0.24068 2.05356,0.91675 2.38935,1.4277 2.32336,3.53535 -0.0776,2.47965 -0.58254,3.47482 -2.27714,4.48841 -1.53885,0.92042 -3.41437,1.3631 -3.71491,0.87682 z"
       id="path1" /></g></svg>
